<?xml version="1.0" encoding="UTF-8"?> <svg xmlns="http://www.w3.org/2000/svg" width="31" height="32" viewBox="0 0 31 32" fill="none"> <path d="M2.25247 8.00488H0V24.0444H2.25247V8.00488Z" fill="white"></path> <path d="M30.6753 8.00488H28.4229V24.0444H30.6753V8.00488Z" fill="white"></path> <path d="M4.50423 23.6942H2.25195V26.3616H4.50423V23.6942Z" fill="white"></path> <path d="M28.4219 23.6942H26.1694V26.3616H28.4219V23.6942Z" fill="white"></path> <path d="M6.7572 26.3617H4.50439V29.0291H6.7572V26.3617Z" fill="white"></path> <path d="M23.9133 29.033H6.75732V31.7004H23.9133V29.033Z" fill="white"></path> <path d="M26.1699 26.3617H23.9175V29.0291H26.1699V26.3617Z" fill="white"></path> <path d="M10.7291 10.4272H8.47656V13.0946H10.7291V10.4272Z" fill="white"></path> <path d="M8.47711 13.0946H6.22461V15.7621H8.47711V13.0946Z" fill="white"></path> <path d="M13.0327 13.0946H10.7803V15.7621H13.0327V13.0946Z" fill="white"></path> <path d="M19.8448 13.0946H17.5923V15.7621H19.8448V13.0946Z" fill="white"></path> <path d="M24.4004 13.0946H22.1479V15.7621H24.4004V13.0946Z" fill="white"></path> <path d="M22.0972 10.4272H19.8447V13.0946H22.0972V10.4272Z" fill="white"></path> <path d="M26.1679 8.00488H28.4204V5.33747H26.1679V8.00488Z" fill="white"></path> <path d="M2.25485 8.00488H4.50732V5.33747H2.25485L2.25485 8.00488Z" fill="white"></path> <path d="M23.9145 5.33411H26.167V2.66671L23.9145 2.66671V5.33411Z" fill="white"></path> <path d="M6.76126 2.66748L23.9175 2.66748V8.22544e-05L6.76126 8.22544e-05V2.66748Z" fill="white"></path> <path d="M12.8418 25.7666H17.8291V18.9348H12.8418V25.7666Z" fill="white"></path> <path d="M4.50792 5.33411H6.76025V2.66671L4.50792 2.66671V5.33411Z" fill="white"></path> </svg> 