<?xml version="1.0" encoding="UTF-8"?> <svg xmlns="http://www.w3.org/2000/svg" width="141" height="15" viewBox="0 0 141 15" fill="none"> <path d="M14.6489 0.890025L13.7179 4.08203H2.33691C2.57757 3.27136 3.02091 2.55569 3.66691 1.93502C4.38891 1.23836 5.13624 0.890025 5.90891 0.890025H14.6489ZM11.9509 10.485L10.9629 14.019H4.93991C2.84991 14.019 1.51991 13.354 0.949906 12.024C0.772573 11.6187 0.715573 11.055 0.778906 10.333C0.791573 10.1937 0.816906 9.94036 0.854906 9.57303L1.97591 5.33603L6.68791 5.31703L5.31991 9.51603C5.35791 9.68069 5.39591 9.85169 5.43391 10.029C5.54791 10.257 5.78224 10.409 6.13691 10.485H11.9509Z" fill="white"></path> <path d="M30.1287 4.04403H15.4037L17.4177 0.890025H28.2287C28.52 0.890025 28.8114 0.991358 29.1027 1.19403C29.4067 1.39669 29.6347 1.63736 29.7867 1.91603C30.0147 2.33403 30.1287 3.04336 30.1287 4.04403ZM29.9007 5.31703C29.7994 6.08969 29.356 6.81803 28.5707 7.50203C28.216 7.81869 27.9184 8.01503 27.6777 8.09103C27.969 8.54703 28.1147 9.02836 28.1147 9.53503C28.1147 9.82636 28.0704 10.238 27.9817 10.77C27.931 11.0994 27.6017 12.1697 26.9937 13.981H22.7377L24.2577 8.75603H19.7737L18.1587 13.981H13.7317L16.2777 5.31703H29.9007Z" fill="white"></path> <path d="M43.7762 0.852025L40.9072 4.06303H31.6162L30.9322 0.909026H35.7012L36.0622 2.37203L37.4682 0.833026L43.7762 0.852025ZM39.7102 5.31703L37.3922 7.80603L35.7012 13.981H30.7232L32.4902 7.76803L31.9392 5.35503L39.7102 5.31703Z" fill="white"></path> <path d="M58.7534 4.06303H44.1424L46.0994 0.890025H56.8344C57.1257 0.890025 57.4234 0.991358 57.7274 1.19403C58.0314 1.39669 58.2531 1.63736 58.3924 1.91603C58.6331 2.35936 58.7534 3.07503 58.7534 4.06303ZM58.4114 5.31703C58.3607 5.63369 58.2404 6.00103 58.0504 6.41903C57.3031 7.97703 55.5171 8.75603 52.6924 8.75603H48.3224L46.8594 13.981H42.5084L44.8834 5.33603L58.4114 5.31703Z" fill="white"></path> <path d="M72.8697 0.890025L71.9957 4.04403H59.3417L61.3557 0.890025H72.8697ZM67.9487 5.31703L65.6497 13.981H61.2987L63.6547 5.31703H67.9487Z" fill="white"></path> <path d="M86.4817 4.08203H73.9607C74.214 3.22069 74.6447 2.49236 75.2527 1.89703C76 1.17503 76.7727 0.814026 77.5707 0.814026H84.0307C85.6647 0.814026 86.4817 1.68169 86.4817 3.41703C86.4817 3.84769 86.4817 4.06936 86.4817 4.08203ZM86.2157 5.29803L86.1397 5.60203C85.937 6.26069 85.5887 7.46403 85.0947 9.21203C84.778 10.314 84.2903 11.2387 83.6317 11.986C82.441 13.3287 80.845 14 78.8437 14H76.5827C75.3667 14 74.404 13.772 73.6947 13.316C72.8207 12.7714 72.3837 11.929 72.3837 10.789C72.3837 10.181 72.4787 9.53503 72.6687 8.85103L73.6187 5.33603H78.0457L76.7347 9.95303C76.684 10.1684 76.6587 10.333 76.6587 10.447C76.6587 10.7004 76.7727 10.8587 77.0007 10.922H79.7557C80.0977 10.8334 80.351 10.5104 80.5157 9.95303L81.8837 5.31703L86.2157 5.29803Z" fill="white"></path> <path d="M93.6151 0.890025L92.6651 4.06303H88.0671L88.9411 0.928025L93.6151 0.890025ZM97.1871 10.751L94.5271 13.981H85.2931L87.7441 5.31703H92.3611L90.8411 10.732L97.1871 10.751Z" fill="white"></path> <path d="M111.79 4.08203H99.2693C99.5226 3.22069 99.9533 2.49236 100.561 1.89703C101.309 1.17503 102.081 0.814026 102.879 0.814026H109.339C110.973 0.814026 111.79 1.68169 111.79 3.41703C111.79 3.84769 111.79 4.06936 111.79 4.08203ZM111.524 5.29803L111.448 5.60203C111.246 6.26069 110.897 7.46403 110.403 9.21203C110.087 10.314 109.599 11.2387 108.94 11.986C107.75 13.3287 106.154 14 104.152 14H101.891C100.675 14 99.7126 13.772 99.0033 13.316C98.1293 12.7714 97.6923 11.929 97.6923 10.789C97.6923 10.181 97.7873 9.53503 97.9773 8.85103L98.9273 5.33603H103.354L102.043 9.95303C101.993 10.1684 101.967 10.333 101.967 10.447C101.967 10.7004 102.081 10.8587 102.309 10.922H105.064C105.406 10.8334 105.66 10.5104 105.824 9.95303L107.192 5.31703L111.524 5.29803Z" fill="white"></path> <path d="M126.239 0.890025L125.46 4.06303H113.053C113.281 3.32836 113.724 2.63169 114.383 1.97303C115.105 1.25103 115.858 0.890025 116.644 0.890025H126.239ZM125.118 5.79203L124.111 9.51603C123.832 10.5294 123.408 11.3717 122.838 12.043C121.736 13.335 120.133 13.981 118.031 13.981H115.751C113.547 13.981 112.198 13.354 111.704 12.1C111.501 11.5934 111.4 11.131 111.4 10.713C111.4 10.371 111.463 9.96569 111.59 9.49703L112.768 5.31703H117.252L116.131 9.23103C116.067 9.44636 116.036 9.60469 116.036 9.70603C116.036 9.95936 116.162 10.124 116.416 10.2H119.114C119.494 10.0987 119.747 9.77569 119.874 9.23103L119.912 9.00303L117.1 9.04103L119.114 5.79203H125.118Z" fill="white"></path> <path d="M140.242 0.852025L137.373 4.06303H128.082L127.398 0.909026H132.167L132.528 2.37203L133.934 0.833026L140.242 0.852025ZM136.176 5.31703L133.858 7.80603L132.167 13.981H127.189L128.956 7.76803L128.405 5.35503L136.176 5.31703Z" fill="white"></path> </svg> 