<?xml version="1.0" encoding="UTF-8"?> <!-- Generator: Adobe Illustrator 25.4.0, SVG Export Plug-In . SVG Version: 6.00 Build 0) --> <svg xmlns="http://www.w3.org/2000/svg" xmlns:xlink="http://www.w3.org/1999/xlink" id="Слой_1" x="0px" y="0px" viewBox="0 0 148 15" style="enable-background:new 0 0 148 15;" xml:space="preserve"> <style type="text/css"> .st0{fill:#FF1D1D;} .st1{fill:none;} .st2{fill:#FFFFFF;} </style> <g> <polygon class="st0" points="138.9,6.3 5.5,5.4 5.8,4.2 140.9,4.2 "></polygon> <g> <path class="st1" d="M122.6,10.3c0,0,0.1,0,0.1,0h-2.9c0,0,0,0,0.1,0H122.6z"></path> <path class="st1" d="M105.8,11h2.8c0.3-0.1,0.5-0.3,0.7-0.8h-3.7c0,0.1,0,0.2,0,0.3C105.5,10.8,105.6,10.9,105.8,11z"></path> <path class="st1" d="M80.5,11h2.8c0.3-0.1,0.5-0.3,0.7-0.8h-3.7c0,0.1,0,0.2,0,0.3C80.2,10.8,80.3,10.9,80.5,11z"></path> <path class="st2" d="M5.4,5.8l-1,3.9c0,0.4-0.1,0.6-0.1,0.8c-0.1,0.7,0,1.3,0.2,1.7c0.6,1.3,1.9,2,4,2h6l1-3.5H9.6 c-0.3-0.1-0.5-0.2-0.6-0.3H5.4V5.8z"></path> <path class="st2" d="M18.2,1H9.4C8.6,1,7.9,1.3,7.2,2C7,2.2,6.8,2.4,6.7,2.5h11L18.2,1z"></path> <path class="st2" d="M26.2,14.1h4.3c0.6-1.8,0.9-2.9,1-3.2c0-0.2,0.1-0.4,0.1-0.6h-4.2L26.2,14.1z"></path> <polygon class="st2" points="17.2,14.1 21.7,14.1 22.8,10.2 18.4,10.2 "></polygon> <path class="st2" d="M33.3,2c-0.2-0.3-0.4-0.5-0.7-0.7C32.3,1.1,32,1,31.7,1H20.9l-1,1.6h13.6C33.4,2.3,33.4,2.1,33.3,2z"></path> <polygon class="st2" points="47.3,0.9 41,0.9 39.6,2.5 39.2,1 34.4,1 34.8,2.5 45.9,2.5 "></polygon> <polygon class="st2" points="34.2,14.1 39.2,14.1 40.3,10.2 35.3,10.2 "></polygon> <polygon class="st2" points="46,14.1 50.4,14.1 51.4,10.2 47.1,10.2 "></polygon> <path class="st2" d="M61.9,2c-0.1-0.3-0.4-0.5-0.7-0.7C60.9,1.1,60.6,1,60.3,1H49.6l-1,1.6h13.4C62,2.3,62,2.1,61.9,2z"></path> <polygon class="st2" points="76.4,1 64.9,1 63.9,2.5 75.9,2.5 "></polygon> <polygon class="st2" points="64.8,14.1 69.2,14.1 70.2,10.2 65.8,10.2 "></polygon> <path class="st2" d="M83.3,11h-2.8c-0.2-0.1-0.3-0.2-0.3-0.5c0-0.1,0-0.2,0-0.3h-4.3c0,0.2,0,0.4,0,0.6c0,1.1,0.4,2,1.3,2.5 c0.7,0.5,1.7,0.7,2.9,0.7h2.3c2,0,3.6-0.7,4.8-2c0.5-0.5,0.8-1.1,1.1-1.8h-4.3C83.8,10.7,83.6,10.9,83.3,11z"></path> <path class="st2" d="M87.5,0.9h-6.5c-0.8,0-1.6,0.4-2.3,1.1c-0.2,0.2-0.3,0.4-0.5,0.6h11.6C89.6,1.4,88.8,0.9,87.5,0.9z"></path> <polygon class="st2" points="97.1,1 92.4,1 92,2.5 96.7,2.5 "></polygon> <polygon class="st2" points="88.8,14.1 98,14.1 100.7,10.8 94.3,10.8 94.5,10.2 89.9,10.2 "></polygon> <path class="st2" d="M108.6,11h-2.8c-0.2-0.1-0.3-0.2-0.3-0.5c0-0.1,0-0.2,0-0.3h-4.3c0,0.2,0,0.4,0,0.6c0,1.1,0.4,2,1.3,2.5 c0.7,0.5,1.7,0.7,2.9,0.7h2.3c2,0,3.6-0.7,4.8-2c0.5-0.5,0.8-1.1,1.1-1.8h-4.3C109.1,10.7,108.9,10.9,108.6,11z"></path> <path class="st2" d="M112.8,0.9h-6.5c-0.8,0-1.6,0.4-2.3,1.1c-0.2,0.2-0.3,0.4-0.5,0.6h11.6C114.9,1.4,114.1,0.9,112.8,0.9z"></path> <path class="st2" d="M129.7,1h-9.6c-0.8,0-1.5,0.4-2.3,1.1c-0.2,0.2-0.3,0.3-0.4,0.5h11.9L129.7,1z"></path> <path class="st2" d="M122.6,10.3h-2.7c0,0,0,0-0.1,0h-4.9c0,0.2,0,0.4,0,0.6c0,0.4,0.1,0.9,0.3,1.4c0.5,1.3,1.8,1.9,4,1.9h2.3 c2.1,0,3.7-0.6,4.8-1.9c0.4-0.5,0.8-1.2,1.1-1.9h-4.7C122.7,10.3,122.7,10.3,122.6,10.3z"></path> <polygon class="st2" points="143.7,0.9 137.4,0.9 136,2.5 135.7,1 130.9,1 131.2,2.5 142.3,2.5 "></polygon> <polygon class="st2" points="130.7,14.1 135.7,14.1 136.7,10.2 131.8,10.2 "></polygon> <polygon class="st2" points="23.3,8.8 22.8,10.2 27.4,10.2 27.8,8.8 "></polygon> <path class="st2" d="M8.8,9.6l1.4-4.2l-4.7,0L5.4,5.8v4.5h3.7c0,0-0.1-0.1-0.1-0.1C8.9,9.9,8.9,9.8,8.8,9.6z"></path> <path class="st2" d="M17.2,4.2l0.5-1.6h-11C6.3,3,6,3.6,5.8,4.2H17.2z"></path> <path class="st2" d="M33.6,4.1c0-0.7-0.1-1.2-0.2-1.6H19.9l-1,1.6H33.6z"></path> <path class="st2" d="M31.2,8.2c0.2-0.1,0.5-0.3,0.9-0.6c0.8-0.7,1.2-1.4,1.3-2.2H19.8l-1.4,4.8h4.5l0.4-1.4h4.5l-0.4,1.4h4.2 c0-0.2,0-0.5,0-0.6C31.6,9.1,31.5,8.6,31.2,8.2z"></path> <polygon class="st2" points="43.2,5.4 35.4,5.4 36,7.9 35.3,10.2 40.3,10.2 40.9,7.9 "></polygon> <polygon class="st2" points="44.4,4.1 45.9,2.5 34.8,2.5 35.1,4.1 "></polygon> <path class="st2" d="M62.3,4.1c0-0.7-0.1-1.2-0.2-1.6H48.6l-1,1.6H62.3z"></path> <path class="st2" d="M56.2,8.8c2.8,0,4.6-0.8,5.4-2.3c0.2-0.4,0.3-0.8,0.4-1.1l-13.5,0l-1.3,4.8h4.4l0.4-1.4H56.2z"></path> <polygon class="st2" points="75.5,4.1 75.9,2.5 63.9,2.5 62.8,4.1 "></polygon> <polygon class="st2" points="67.2,5.4 65.8,10.2 70.2,10.2 71.5,5.4 "></polygon> <path class="st2" d="M80.2,10l1.3-4.6h-4.4l-1,3.5C76,9.4,76,9.8,75.9,10.2h4.3C80.2,10.2,80.2,10.1,80.2,10z"></path> <path class="st2" d="M89.6,5.7l0.1-0.3l-4.3,0L84,10c0,0.1-0.1,0.1-0.1,0.2h4.3c0.1-0.3,0.2-0.6,0.3-0.9 C89.1,7.5,89.4,6.3,89.6,5.7z"></path> <path class="st2" d="M90,4.2c0,0,0-0.2,0-0.7c0-0.4,0-0.7-0.1-1H78.3c-0.4,0.5-0.6,1-0.8,1.6H90z"></path> <polygon class="st2" points="96.2,4.1 96.7,2.5 92,2.5 91.6,4.1 "></polygon> <polygon class="st2" points="91.2,5.4 89.9,10.2 94.5,10.2 95.9,5.4 "></polygon> <path class="st2" d="M115.3,4.2c0,0,0-0.2,0-0.7c0-0.4,0-0.7-0.1-1h-11.6c-0.4,0.5-0.6,1-0.8,1.6H115.3z"></path> <path class="st2" d="M115,5.7l0.1-0.3l-4.3,0l-1.4,4.6c0,0.1,0,0.1-0.1,0.2h4.3c0.1-0.3,0.2-0.6,0.3-0.9 C114.4,7.5,114.7,6.3,115,5.7z"></path> <path class="st2" d="M105.5,10l1.3-4.6h-4.4l-1,3.5c-0.1,0.5-0.2,0.9-0.2,1.3h4.3C105.5,10.2,105.5,10.1,105.5,10z"></path> <path class="st2" d="M128.6,5.9h-6l-2,3.2l2.8,0l0,0.2c-0.1,0.5-0.3,0.8-0.7,0.9h4.7c0.1-0.2,0.1-0.4,0.2-0.6L128.6,5.9z"></path> <path class="st2" d="M119.5,9.8c0-0.1,0-0.3,0.1-0.5l1.1-3.9h-4.5l-1.2,4.2c-0.1,0.2-0.1,0.5-0.1,0.7h4.9 C119.7,10.2,119.5,10,119.5,9.8z"></path> <path class="st2" d="M129,4.1l0.4-1.6h-11.9c-0.4,0.5-0.7,1.1-0.9,1.6H129z"></path> <polygon class="st2" points="140.9,4.1 142.3,2.5 131.2,2.5 131.6,4.1 "></polygon> <polygon class="st2" points="139.7,5.4 131.9,5.4 132.5,7.9 131.8,10.2 136.7,10.2 137.4,7.9 "></polygon> </g> </g> </svg> 