<?xml version="1.0" encoding="UTF-8"?> <svg xmlns="http://www.w3.org/2000/svg" width="31" height="32" viewBox="0 0 31 32" fill="none"> <path d="M19.1292 21.2593H11.3794V23.8912H19.1292V21.2593Z" fill="#F8F2FF"></path> <path d="M28.0369 7.89587V12.117H26.061V9.1672H17.0679V12.692H19.2903V16.5095H26.061V14.749H28.0369V23.3733H25.8145V26.0089H28.0369V23.7197H30.2593V7.89587H28.0369Z" fill="#F8F2FF"></path> <path d="M2.22238 23.3733V14.749H4.44476V16.5095H11.2155V12.692H13.4379V9.1672H4.44476V12.117H2.22238V7.89587H0V23.7197H2.22238V26.0089H4.44476V23.3733H2.22238Z" fill="#F8F2FF"></path> <path d="M17.0645 12.8384H13.438V14.4633H17.0645V12.8384Z" fill="#F8F2FF"></path> <path d="M6.6672 26.0088H4.44482V28.6408H6.6672V26.0088Z" fill="#F8F2FF"></path> <path d="M23.5921 28.6409H6.66699V31.2728H23.5921V28.6409Z" fill="#F8F2FF"></path> <path d="M25.8145 26.0088H23.5923V28.6408H25.8145V26.0088Z" fill="#F8F2FF"></path> <path d="M28.0369 5.26404H25.8145V7.896H28.0369V5.26404Z" fill="#F8F2FF"></path> <path d="M4.44503 5.26404H2.22266V7.896H4.44503V5.26404Z" fill="#F8F2FF"></path> <path d="M25.8145 2.63196H23.5923V5.26391H25.8145V2.63196Z" fill="#F8F2FF"></path> <path d="M23.5921 0H6.66699V2.63203H23.5921V0Z" fill="#F8F2FF"></path> <path d="M6.6672 2.63196H4.44482V5.26391H6.6672V2.63196Z" fill="#F8F2FF"></path> </svg> 