<?xml version="1.0" encoding="UTF-8"?> <svg xmlns="http://www.w3.org/2000/svg" width="271" height="45" viewBox="0 0 271 45" fill="none"> <path d="M249.812 26.5963C249.822 26.1456 249.575 25.815 249.09 25.5847C247.972 25.0538 246.855 24.523 245.747 23.9721C245.519 23.8619 245.361 23.6817 244.936 23.3611C245.747 23.251 246.271 23.1909 246.716 23.1308C247.755 23.8419 248.645 24.523 249.624 25.1139C250.861 25.8651 252.394 26.0655 253.858 26.3759C254.728 26.5562 255.52 26.6964 256.103 27.3074C256.39 27.6179 256.904 27.7882 257.32 28.0185C259.249 29.0602 261.257 30.0217 263.077 31.1736C264.481 32.065 265.649 33.1968 267.014 34.2985C267.459 34.3586 268.023 34.4388 268.755 34.5289C269.803 35.6807 270.782 36.9327 271 38.375C269.783 39.5068 268.666 38.7656 267.37 38.6455C265.599 39.3265 263.73 38.4151 261.811 38.5453C261.662 38.2749 261.544 38.0545 261.356 37.724C259.724 37.1831 257.983 36.6122 256.242 36.0313C255.975 35.9411 255.688 35.841 255.5 35.6807C254.155 34.5589 252.443 33.9981 250.653 33.4973C249.822 33.2669 249.189 32.6058 248.111 31.9147C247.864 31.8647 247.171 31.7044 246.469 31.5542C246.192 31.4941 245.836 31.4841 245.648 31.3438C243.996 30.0618 241.662 29.8114 239.782 28.8399C238.041 27.9284 236.033 27.3475 234.421 26.2357C232.334 25.9853 230.959 24.6031 229 24.1023C228.872 23.8118 228.763 23.5414 228.624 23.2209C226.755 23.8719 226.221 22.7502 225.657 21.7386C224.005 21.1977 222.403 20.6969 220.81 20.156C220.217 19.9557 219.663 19.6853 219.099 19.4349C218.278 19.0643 217.486 18.6737 216.665 18.3131C216.349 18.1729 215.914 18.1528 215.686 17.9625C213.846 16.39 210.928 16.5804 208.97 14.9978C208.633 15.3284 208.505 15.4586 208.327 15.6288C208.96 16.2999 209.514 16.8909 210.068 17.4818C211.265 18.253 213.263 18.0427 214.005 19.5651C214.183 19.5651 214.47 19.5651 214.855 19.5751C216.497 20.6769 218.387 21.6083 220.296 22.5398C222.422 23.5815 224.737 24.523 226.379 26.1456C227.2 26.9569 228.08 27.7181 229.188 28.7297C230.84 29.4208 232.977 31.9348 233.442 34.0081C231.908 34.7292 231.908 34.7292 229.04 33.9981C228.605 34.1884 228.1 34.4087 227.477 34.6791C226.428 33.8879 224.786 34.2384 223.55 33.5173C222.264 32.7761 220.82 32.2252 219.287 31.7845C216.27 30.9232 213.312 29.9416 210.355 28.96C208.416 28.309 206.576 27.4376 204.598 26.8767C202.065 26.1556 199.929 24.7434 197.209 24.3728C196.862 24.3227 196.457 24.2225 196.21 24.0322C194.528 22.7101 192.253 22.3395 190.205 21.6284C184.201 19.5551 178.088 17.6621 172.074 15.5888C166.832 13.7859 161.332 12.6441 155.862 11.3921C154.813 11.1517 153.735 11.0115 152.588 10.8112C152.212 11.1017 151.866 11.3721 151.579 11.6025C151.727 12.9847 152.825 13.8861 153.735 14.7174C154.803 15.6889 155.585 16.8007 156.564 17.8023C158.186 19.4549 159.749 21.1476 161.233 22.8904C162.667 24.5831 164.042 26.3058 165.289 28.0887C166.208 29.4007 167.395 30.6026 167.939 32.105C168.315 33.1567 168.424 34.1884 168.177 35.25C167.89 36.482 166.891 37.123 165.348 36.9828C164.339 36.8927 163.35 36.6623 162.351 36.462C161.925 36.3818 161.53 36.1815 161.104 36.1415C156.04 35.6407 151.786 33.5674 147.444 31.6944C143.933 30.182 140.52 28.4993 137.107 26.8467C134.813 25.7349 132.587 24.523 130.342 23.3511C129.916 23.1308 129.56 22.8303 129.184 22.5599C128.917 22.3695 128.7 22.0691 128.383 21.9789C124.951 20.9273 122.201 18.9942 119.174 17.4217C118.571 17.1112 117.918 16.8408 117.245 16.6304C116.879 16.5203 116.424 16.5703 115.702 16.5303C116.117 17.0611 116.315 17.4317 116.642 17.7022C118.284 19.0142 119.975 20.2963 121.617 21.6084C122.537 22.3395 123.477 23.0807 124.238 23.912C124.941 24.6932 125.791 25.2842 126.771 25.795C127.76 26.3158 128.581 26.9769 129.125 27.8082C130.381 29.7413 132.221 31.3338 133.665 33.1567C134.961 34.7793 136.296 36.3818 136.959 38.2748C137.206 38.986 137.404 39.7172 137.671 40.5785C137.513 40.7288 137.246 40.9892 136.939 41.2997C134.813 40.7187 132.755 40.1579 130.688 39.607C130.203 39.4768 129.728 39.3365 129.234 39.2564C127.285 38.9259 125.485 38.3249 123.853 37.4035C123.447 37.1731 122.953 37.0429 122.498 36.8726C121.973 36.6723 121.39 36.5521 120.925 36.2917C117.769 34.5489 114.644 32.7661 111.498 31.0133C110.845 30.6527 110.173 30.2721 109.441 30.0318C108.263 29.6612 107.294 29.0502 106.394 28.3992C105.197 27.5278 103.901 26.8166 102.526 26.1556C101.557 25.6949 100.706 25.0538 99.8062 24.5029C98.9357 23.9721 98.0949 23.4212 97.1849 22.9405C95.8594 22.2494 94.3163 21.7586 93.1788 20.9173C90.607 19.0142 87.6197 17.582 84.8798 15.8792C83.0993 14.7675 81.2495 13.7358 79.4295 12.6641C79.0734 12.4538 78.7173 12.2635 78.3315 12.0932C77.471 11.7126 76.6005 11.342 75.7498 10.9714C76.1752 12.1934 76.462 12.614 77.3523 13.2451C78.2722 13.8961 79.0536 14.5672 79.6471 15.5087C80.4879 16.8408 81.8233 17.9626 82.941 19.1745C84.0687 20.3964 85.1765 21.6184 86.3042 22.8403C87.2537 23.8719 88.2528 24.8735 89.1628 25.9152C89.9541 26.8266 90.7158 27.7581 91.3884 28.7297C92.6546 30.5826 93.9899 32.3654 95.8693 33.8578C96.1661 34.0882 96.3046 34.4588 96.4925 34.7693C97.1157 35.831 97.8378 36.8526 98.2928 37.9644C98.7181 39.016 98.8863 40.1378 99.094 41.2496C99.2028 41.8305 99.1533 42.4314 99.183 43.0925C98.6489 43.6935 98.1048 44.3245 97.6498 44.8353C96.2155 45.2259 95.1077 44.8553 94.0987 44.4146C90.6565 42.8922 86.9669 41.7604 83.7126 39.9675C82.397 39.2364 81.0418 38.5653 79.7262 37.8442C75.5223 35.5405 71.17 33.4271 66.8375 31.2737C62.8314 29.2805 58.9935 27.077 55.0665 24.9837C53.4344 24.1123 51.7429 23.311 50.0811 22.4697C44.1759 19.475 38.2706 16.4802 32.3554 13.4955C31.8114 13.225 31.2278 13.0147 30.4463 12.6741C30.4167 13.1349 30.2683 13.4554 30.4068 13.6257C32.3356 16.0295 33.9381 18.6136 36.4011 20.7269C37.0242 21.2578 37.4199 21.9589 37.8353 22.63C39.3587 23.8018 40.2885 25.3143 41.3864 26.7465C41.6931 27.1472 42.0393 27.5178 42.3855 27.8984C43.6516 29.3006 45.3431 30.4624 46.1146 32.1551C47.539 33.1467 48.1918 34.5389 48.9832 35.851C49.9031 37.3734 50.8626 38.8959 51.6638 40.4583C52.3166 41.7504 52.3463 43.0825 51.1297 44.3846C50.6647 44.2043 50.2889 44.0841 49.9328 43.9238C49.6162 43.7836 49.3393 43.4831 49.0128 43.4631C46.9653 43.3529 45.3727 42.3113 43.5032 41.8505C41.3765 41.3297 39.6752 40.1779 37.8353 39.2464C33.028 36.8326 28.2702 34.3486 23.5123 31.8747C18.4379 29.2505 13.3339 26.6664 8.33861 23.9321C6.25149 22.7902 4.39187 21.358 2.51246 19.9758C1.66179 19.3548 1.00894 18.5535 0.316531 17.8023C0.138482 17.602 0.148374 17.2915 0 16.7706C0.722086 16.971 1.20677 17.0311 1.58265 17.2214C4.67872 18.8339 7.61653 20.6168 10.6236 22.3295C12.7503 23.5414 14.966 24.6532 17.1223 25.8251C19.5952 27.1672 22.1572 28.3691 24.8081 29.4608C25.3917 29.7012 25.9753 29.9316 26.549 30.182C27.0634 30.4023 27.647 30.5526 28.0723 30.853C30.6343 32.6158 33.8391 33.4973 36.6286 34.9395C38.0332 35.6607 39.5466 36.2516 41.0303 36.8726C41.4359 37.0429 41.9107 37.103 42.613 37.2732C42.4547 35.9812 41.8612 35.0497 41.2974 34.1383C40.6446 33.0966 39.9225 32.065 39.1015 31.1034C36.2131 27.7281 33.2259 24.4128 30.3573 21.0274C27.1227 17.2113 23.5222 13.5756 21.2076 9.27876C20.8812 8.66778 20.713 8.09686 20.7427 7.41578C20.802 6.30401 20.6833 5.19224 20.6438 4.13055C23.0375 3.26918 24.5707 3.53961 26.0545 4.88175C26.6776 5.44264 27.3601 6.01356 28.1614 6.39416C33.1171 8.72787 37.7463 11.4622 42.524 14.0063C47.1829 16.4902 51.8418 18.9742 56.5008 21.4581C57.8263 22.1693 59.1319 22.9004 60.4574 23.6216C64.9779 26.0554 69.4884 28.5093 74.0188 30.9232C76.739 32.3755 79.4592 33.8178 82.2486 35.1899C84.1577 36.1214 86.0667 37.103 88.2429 37.5637C89.4695 37.1531 89.5684 36.3718 89.2914 35.6106C88.7474 34.1583 88.1044 32.716 87.4219 31.3038C87.0065 30.4324 86.5218 29.561 85.9283 28.7697C85.0281 27.5778 84.0192 26.436 83.03 25.2942C81.8233 23.912 80.567 22.5498 79.38 21.1576C79.1031 20.8271 79.014 20.3964 78.9646 20.2862C77.8864 19.3247 76.8972 18.6236 76.1949 17.7722C75.5322 16.961 75.1662 15.9894 74.6024 14.9678C74.187 14.8676 73.6528 14.7374 72.8417 14.5371C72.5351 14.0964 72.1295 13.4955 71.5459 12.6541C70.0325 12.0031 69.2906 10.5207 68.4597 9.07842C66.1945 8.21705 65.6109 6.18384 63.9096 4.87175C64.3349 3.92024 64.4734 3.03882 63.8799 2.12737C63.6128 1.71672 63.8008 1.10577 63.781 0.645032C64.0283 0.514825 64.1371 0.434688 64.2756 0.384609C66.6298 -0.346554 67.6387 -0.0861387 69.0829 1.60655C69.3203 1.887 69.5676 2.22754 69.9138 2.38779C72.5746 3.5897 74.6519 5.39257 77.0852 6.83487C82.1101 9.8096 87.0955 12.8344 92.1006 15.8392C93.0799 16.4301 94.0493 17.0211 95.0186 17.622C96.5716 18.5735 98.1345 19.525 99.6875 20.4766C99.7468 20.5166 99.7963 20.5667 99.8655 20.5767C102.23 21.0675 103.605 22.67 105.425 23.7718C106.414 24.3728 107.393 24.9737 108.432 25.5045C110.153 26.3759 111.913 27.1972 113.664 28.0386C116.404 29.3607 119.124 30.7228 121.904 31.9848C123.101 32.5257 124.416 32.8963 125.692 33.317C125.871 33.3771 126.108 33.3069 126.513 33.2969C126.424 32.9063 126.444 32.5658 126.276 32.2953C125.148 30.5125 123.675 28.91 122.092 27.3875C120.786 26.1355 119.362 24.9537 118.076 23.6817C117.591 23.2109 117.354 22.5699 116.899 21.8287C116.731 21.7686 116.345 21.6184 115.87 21.4481C115.811 21.3079 115.732 21.0875 115.643 20.8772C114.367 20.4765 114.367 20.4766 113.595 19.4249C112.655 19.3948 111.874 18.9842 111.637 18.1729C111.478 17.6421 111.023 17.4117 110.608 17.0912L110.548 17.1212C110.539 16.971 110.539 16.8308 110.529 16.6905L110.598 16.7406C110.539 16.7106 110.479 16.6605 110.42 16.6605C110.291 16.6805 110.182 16.7206 110.054 16.7607L110.084 16.7106C109.767 16.8107 109.46 16.9209 109.094 17.0311C109.065 15.1381 109.065 15.1381 107.086 13.866C106.859 14.0363 106.621 14.2166 106.305 14.457C106.859 15.0579 107.353 15.5888 107.838 16.1196L107.888 16.0795C107.512 15.9393 107.047 15.8792 106.77 15.6589C105.167 14.3969 103.575 13.1249 102.071 11.7827C101.567 11.332 101.369 10.6709 100.963 9.97985C99.8457 9.86968 99.0742 9.20862 98.5598 8.3172C98.6291 7.9366 98.7082 7.62613 99.3809 7.77637C99.6182 7.82645 99.9348 7.65615 100.429 7.53596C99.6875 6.96506 99.1237 6.53438 98.5994 6.13374C99.0346 5.34248 99.4303 4.62134 99.8853 3.79002C100.479 3.63978 101.171 3.46951 102.052 3.25917C104.554 5.08207 107.868 6.11371 110.4 8.07683C111.419 8.86809 112.794 9.35887 114.001 9.98988C114.189 10.08 114.376 10.1702 114.555 10.2703C116.998 11.6325 119.392 13.0447 121.884 14.3468C124.011 15.4586 126.227 16.4702 128.442 17.4718C130.322 18.3231 132.33 19.0042 134.15 19.9157C135.129 20.4064 136.009 20.9874 137.186 21.1977C137.503 21.2578 137.8 21.5082 138.037 21.7185C139.531 23.0006 139.57 23.0206 141.756 23.3411C142.093 24.0923 142.815 24.533 143.853 24.5931C144.912 24.6532 145.782 25.0638 146.692 25.4545C149.769 26.7666 152.756 28.2289 156.03 29.2505C156.623 29.4308 157.237 29.561 158.048 29.7613C158.068 29.2405 158.196 28.8699 158.058 28.5995C157.741 27.9484 157.306 27.3274 156.9 26.7065C156.703 26.396 156.347 26.1155 156.277 25.785C155.951 24.1924 154.635 23.0907 153.468 21.9088C153.379 21.8187 153.241 21.7486 153.181 21.6484C151.994 19.6853 150.253 18.0226 148.7 16.2698C147.078 14.447 145.515 12.6441 144.912 10.4106C144.121 10.03 144.219 9.29877 143.903 8.72786C144.368 7.2455 143.883 5.47271 146.148 4.43105C146.435 4.44107 146.9 4.54121 147.286 4.44105C149.037 3.99033 150.609 4.53121 152.202 4.9018C154.714 5.48272 157.227 6.08366 159.729 6.69463C160.214 6.81482 160.679 6.97509 161.154 7.11531C161.688 7.27557 162.222 7.47588 162.776 7.57604C163.993 7.79639 165.19 8.01675 166.218 8.62773C166.565 8.82804 167 8.98827 167.415 9.03835C170.046 9.32881 172.331 10.3605 174.755 11.1117C176.644 11.6926 178.622 12.0932 180.531 12.614C181.343 12.8344 182.075 13.2451 182.886 13.4754C187.07 14.6573 191.214 15.9193 195.201 17.4617C197.347 18.2931 199.662 18.9141 201.561 20.126C203.015 20.2762 204.093 21.1576 205.607 21.3079C206.932 21.4381 208.169 22.0891 209.454 22.4797C209.83 22.5999 210.236 22.64 211.027 22.8003C210.651 22.3095 210.543 22.039 210.315 21.8888C206.497 19.3047 202.619 16.7707 198.851 14.1265C197.436 13.1349 196.279 11.9229 194.944 10.7611C194.568 10.7511 194.142 10.7411 193.519 10.7211C192.975 9.43901 192.401 8.08686 191.768 6.61452C192.975 6.37413 193.598 5.47271 194.36 4.84171C194.617 4.83169 194.785 4.78159 194.904 4.82166C198.317 6.12373 201.798 7.31562 205.112 8.76793C210.414 11.0816 215.587 13.5856 220.84 15.9694C223.748 17.2915 226.725 18.5334 229.673 19.8055C233.194 21.3179 236.716 22.8403 240.257 24.3327C241.414 24.8235 242.611 25.2341 243.857 25.7149C244.362 25.4645 244.837 25.2241 245.331 24.9737C246.874 25.5145 248.388 26.0454 249.911 26.5762C250.336 26.7065 250.742 27.037 251.326 26.6063C251.049 26.5362 250.861 26.436 250.683 26.446C250.356 26.436 250.089 26.5362 249.812 26.5963ZM201.432 9.12852C201.521 9.21867 201.62 9.30879 201.512 9.19861C201.66 9.25871 201.521 9.19862 201.373 9.14854L201.294 9.15857L201.432 9.12852ZM171.283 11.983C171.214 12.6942 171.599 12.8945 172.796 12.6341C172.074 12.3436 171.659 12.1733 171.243 12.0131C170.64 12.1533 170.185 11.4522 169.453 11.7627C170.046 12.4137 170.66 12.2334 171.283 11.983ZM83.129 11.6625C83.3169 12.4037 83.3169 12.4037 84.2665 12.5039C83.7818 12.1734 83.4257 11.923 83.0696 11.6826L82.9608 11.7026L83.129 11.6625ZM95.3055 19.3948C95.4242 20.0359 95.9682 20.2262 96.4925 20.3664C96.6705 20.4165 96.9376 20.2362 97.2838 20.126C96.7002 19.495 96.1166 19.3247 95.3055 19.3948ZM224.618 19.6452C225.192 20.4065 225.875 20.6068 226.982 20.5767C226.349 19.8155 225.726 19.495 224.618 19.6452ZM156.515 8.71786C157.474 9.24871 157.474 9.24869 158.097 8.50751C157.573 8.08684 157.118 8.24712 156.515 8.71786ZM243.007 27.2874C243.333 26.8367 243.165 26.6464 242.542 26.6764C242.166 27.1472 242.384 27.3174 243.007 27.2874ZM160.57 9.52915C160.58 9.67939 160.59 9.81962 160.59 9.96986C160.897 9.91978 161.203 9.86967 161.51 9.81959C161.5 9.71943 161.49 9.62931 161.48 9.52915C161.174 9.52915 160.867 9.52915 160.57 9.52915ZM239.545 25.6948C239.555 25.5646 239.564 25.4344 239.574 25.3042C239.347 25.3042 239.119 25.2942 238.892 25.2942C238.872 25.3743 238.852 25.4545 238.833 25.5346C239.07 25.5847 239.307 25.6448 239.545 25.6948ZM231.997 22.8102C232.047 22.7101 232.106 22.62 232.156 22.5198C231.918 22.4397 231.671 22.3495 231.424 22.2894C231.414 22.2894 231.325 22.4597 231.265 22.5499C231.513 22.63 231.75 22.7201 231.997 22.8102ZM207.664 11.3521C207.526 11.5624 207.407 11.6926 207.367 11.8328C207.357 11.8729 207.595 12.0231 207.654 11.9931C207.812 11.933 207.941 11.8128 208.089 11.7126C207.971 11.6225 207.852 11.5223 207.664 11.3521ZM203.915 15.5287C204.004 15.5888 204.103 15.6489 204.192 15.709C204.232 15.6689 204.301 15.5988 204.301 15.5888C204.212 15.5187 204.113 15.4486 204.014 15.3885C203.984 15.4386 203.955 15.4786 203.915 15.5287ZM87.2142 14.5672C87.2636 14.5571 87.3428 14.5571 87.3625 14.5271C87.3922 14.487 87.3823 14.4169 87.3922 14.3668C87.3032 14.3869 87.2241 14.4069 87.1351 14.4169C87.1647 14.467 87.1845 14.5171 87.2142 14.5672ZM174.695 13.2951L174.567 13.235L174.547 13.3252L174.695 13.2951ZM228.476 21.0975L228.634 21.1576L228.644 21.0475L228.476 21.0975ZM221.7 18.223L221.77 18.1429L221.661 18.1328L221.7 18.223Z" fill="white"></path> </svg> 